<?xml version="1.0" encoding="UTF-8"?>
<svg width="100px" height="39px" viewBox="0 0 100 39" version="1.1" xmlns="http://www.w3.org/2000/svg" xmlns:xlink="http://www.w3.org/1999/xlink">
    <!-- Generator: Sketch 52.2 (67145) - http://www.bohemiancoding.com/sketch -->
    <title>BUFFY logo</title>
    <desc>Created with Sketch.</desc>
    <g id="Blog" stroke="none" stroke-width="1" fill="none" fill-rule="evenodd">
        <g id="Blog-Copy-9" transform="translate(-670.000000, -22.000000)" fill="#000000">
            <g id="BUFFY-logo" transform="translate(670.000000, 22.000000)">
                <path d="M50.3766599,11.5495112 C50.3766599,10.8924847 48.0585336,10.5639715 46.8864358,10.5639715 C42.2530346,10.5639715 40.2167821,11.6755804 40.5819552,12.3511405 C41.8805295,14.7541955 42.139389,18.1146843 42.139389,20.3550102 C42.139389,23.6393279 41.1676986,24.7973727 39.5638289,24.7973727 C38.4182077,24.7973727 37.7872505,23.9955397 37.7872505,22.2896334 L37.7872505,11.5692668 C37.7872505,10.9122403 35.3632179,10.5837271 34.1416293,10.5837271 C30.144277,10.5837271 27.7190224,12.1338289 28.2774745,13.2975764 C29.440611,15.721609 30.0169857,18.4998167 29.6617923,23.1368839 C29.3135234,27.6827088 32.0196334,29.3501222 35.4141344,29.3501222 C38.6727902,29.3501222 40.4294094,28.0719145 41.7734012,26.502057 C41.8141344,26.4548065 41.9514053,26.3621385 42.0163747,26.5073523 C42.7715682,28.1961507 44.6809369,29.3698778 47.2607739,29.3698778 C49.840611,29.3698778 51.7544603,28.0719145 51.8644399,27.0827088 C51.9322607,26.4719145 51.6361303,26.2937067 51.2746232,25.9079633 C50.5108758,25.0932994 50.1799185,23.4230346 50.1799185,22.3438086 C50.1799185,19.0594908 50.3766599,11.5495112 50.3766599,11.5495112 M14.4720774,25.0528106 C13.7496741,25.0528106 12.690611,24.8228717 12.690611,24.2053564 C12.690611,23.3862118 12.679002,18.9027088 12.679002,18.9027088 C12.679002,18.2456823 12.784501,17.7923218 12.9963136,17.5426273 C13.2079226,17.2929328 13.5877597,17.1680855 14.1358248,17.1680855 C16.2527291,17.1680855 17.3111813,18.1560692 17.3111813,21.0733809 C17.3111813,23.4124847 16.3647454,25.0528106 14.4720774,25.0528106 Z M12.679002,6.20270876 C12.679002,5.88397149 12.8201426,5.76686354 12.9781874,5.76686354 L13.8370468,5.76686354 C14.6588391,5.76686354 15.2940733,6.11289206 15.7421385,6.7898778 C16.190611,7.46665988 16.4148473,8.42266802 16.4148473,9.65790224 C16.4148473,10.9326477 16.196721,11.8691039 15.7608758,12.4666599 C15.3248269,13.0648269 14.6462118,13.3636049 13.7250305,13.3636049 L13.1366395,13.3819348 C12.8403055,13.3819348 12.679002,13.1601426 12.679002,12.9080041 L12.679002,6.20270876 Z M21.8309369,14.2784725 C21.4602648,14.1444603 21.5150509,13.8418126 21.8437678,13.7102444 C24.1073116,12.5483299 25.2496741,10.6927291 25.2496741,8.13997963 C25.2496741,4.83346232 21.0726884,1.91105906 13.7268635,1.91105906 C8.6486558,1.91105906 3.82645621,2.87154786 0.717087576,3.99619145 L0.715458248,4.03224033 C0.290610998,4.23610998 -2.03665987e-05,4.64588595 -2.03665987e-05,5.11900204 C-2.03665987e-05,5.62083503 0.326863544,6.05179226 0.794276986,6.2407943 C2.77126273,7.05688391 3.99346232,7.8503666 3.99346232,10.4185947 C3.99346232,14.0917108 3.85272912,17.1809165 3.63847251,19.6931365 C3.46556008,21.7187984 3.38918534,22.8483299 2.44295316,23.9242974 C1.9498778,24.4851935 1.02340122,25.225723 1.02340122,25.5479226 C1.02340122,27.3442566 6.14152749,29.3697149 13.7099593,29.3697149 C23.5720774,29.3697149 27.4539511,24.7576986 27.4539511,20.8737882 C27.4539511,17.5772505 25.7635234,15.7754175 21.8309369,14.2784725 Z" id="Fill-4"></path>
                <path d="M96.8029532,10.56389 C95.6827902,10.56389 93.4424644,10.9673523 93.4424644,11.679776 C93.4424644,12.4074745 94.5880855,13.2011609 94.1522403,15.2862933 C94.0151731,15.9418941 92.2041752,21.5091039 91.4153768,21.5091039 C90.6115071,21.5091039 89.9351324,16.4425051 89.7950102,15.6243788 C89.4709776,13.7357841 90.4129328,13.1431161 90.4129328,11.9431161 C90.4129328,11.0887373 88.6053971,10.56389 86.160387,10.56389 C84.3404277,10.56389 81.5449084,10.9089002 79.4868635,11.4549287 L79.4868635,11.4545214 C79.4860489,11.4549287 79.4850305,11.4555397 79.4842159,11.455947 C77.242057,12.0938289 76.257332,11.2869043 76.1817719,10.2575764 C76.0952138,9.07936864 76.0982688,7.89912424 76.1110998,6.76816701 C76.1225051,5.77977597 76.7159878,5.27773931 77.4880855,5.65716904 C78.3774949,6.09403259 79.5927699,6.01358452 79.9962322,5.58588595 C80.7147658,4.82376782 80.7719959,4.15574338 80.1019348,3.19606925 C79.2119145,1.92173116 77.0697556,0.203604888 74.263442,0.203604888 C69.9186354,0.203604888 67.5652749,2.89057026 67.5652749,6.39281059 L67.5652749,10.168167 C67.5652749,11.0339511 67.2115071,11.781609 65.2787169,11.781609 C63.5709776,11.781609 62.8842159,11.2203055 62.8842159,10.0956619 C62.8842159,8.91419552 62.7750509,7.89912424 62.7878819,6.76816701 C62.7990835,5.77977597 63.3713849,5.32498982 64.1648676,5.65716904 C64.8076375,5.92600815 65.9300407,6.13232179 66.4693483,5.58588595 C67.2047862,4.8400611 67.2115071,4.11256619 66.5750509,3.19606925 C65.6884929,1.91949084 63.7974542,0.203604888 60.940224,0.203604888 C56.5952138,0.203604888 54.242057,2.89057026 54.242057,6.39281059 L54.242057,10.3921996 C54.242057,10.8653157 54.037169,11.1217312 53.7797352,11.2579837 C52.8021385,11.775499 51.7544807,12.3716293 51.7544807,12.9339511 C51.7544807,13.4777393 52.860998,14.156558 53.5658859,14.8814053 C54.0328921,15.3618534 54.2660896,15.5942363 54.242057,16.4089002 L54.242057,21.4241752 C54.242057,22.6714257 54.1174134,24.8186762 53.4730143,26.3970876 C52.7471487,28.1757026 54.9263747,29.3500407 58.8257637,29.3500407 C62.9772912,29.3500407 64.6829939,28.1078819 64.6996945,27.0294705 C64.6996945,26.2997352 63.3758656,25.5315071 63.3758656,22.374277 L63.260387,16.8799796 C63.260387,15.6451527 63.7779022,14.3695927 65.4819756,14.3695927 C67.0332994,14.3695927 67.5652749,15.5433198 67.5652749,17.0606314 L67.5652749,22.0410794 C67.5652749,22.7453564 67.4206721,25.3655193 66.7964358,26.3970876 C65.8015275,28.0404684 68.2497963,29.3500407 72.1489817,29.3500407 C76.3007128,29.3500407 78.0231161,28.1080855 78.0231161,27.0294705 C78.0231161,26.2997352 76.6992872,25.4634827 76.6992872,22.374277 L76.5838086,16.0856823 C76.5838086,14.8814053 77.2212831,14.2194908 78.2084521,14.2194908 C79.5322811,14.2194908 79.9789206,14.95778 80.5269857,16.155947 C80.5882892,16.2895519 84.5398167,29.4655193 84.5398167,29.4655193 C85.235947,31.96389 85.8809572,34.6370061 85.0322811,34.9934216 C84.2848269,35.3072709 83.5557026,34.9170468 82.9801426,33.2600204 C82.2159878,31.0604277 82.1206721,29.3628717 80.2206721,29.4944399 C78.2021385,29.6343585 76.3667006,31.668778 76.5206721,33.7284521 C76.6846232,35.9184725 79.8856415,38.4031976 83.3520367,38.4031976 C86.2288187,38.4031976 88.6982688,36.775499 91.2683299,30.7516701 C91.2683299,30.7516701 97.5791242,17.282831 98.2159878,15.966334 C98.8147658,14.7286558 99.7685336,13.2076782 99.9243381,12.564501 C100.255295,11.1997352 98.9422607,10.56389 96.8029532,10.56389" id="Fill-6"></path>
            </g>
        </g>
    </g>
</svg>